<?xml version="1.0" encoding="utf-8"?>
<!-- Generator: Adobe Illustrator 25.2.1, SVG Export Plug-In . SVG Version: 6.00 Build 0)  -->
<svg version="1.1" id="Layer_1" xmlns="http://www.w3.org/2000/svg" xmlns:xlink="http://www.w3.org/1999/xlink" x="0px" y="0px"
     viewBox="0 0 595.28 841.89" style="enable-background:new 0 0 595.28 841.89;" xml:space="preserve">
<style type="text/css">
	.st0{fill:#FFFFFF;}
</style>
    <g>
	<g>
		<path class="st0" d="M292.82,596.1c-9.98,0-19.95,0-29.93,0c-4.76-1.9-9.88-1.55-14.81-2.41c-43.25-7.54-80.4-26.68-110-59.24
			c-38.3-42.14-55.33-91.95-49.96-148.67c4.21-44.5,21.91-83.46,53.76-115.04c47.7-47.3,105.32-66.24,171.5-54.3
			c81.63,14.73,142.49,78.93,154.74,160.55c0.63,4.2,0.31,8.58,2.03,12.6c0,9.98,0,19.95,0,29.93c-1,0.31-0.7,1.18-0.77,1.85
			c-0.69,6.56-1.59,13.09-2.83,19.58c-15.28,79.7-80.01,141.59-160.01,153.09C301.97,594.7,297.26,594.56,292.82,596.1z
			 M180.32,461.92c1.35,0.38,2.52,0.73,3.71,1.03c11.93,3.02,23.87,6.04,35.81,9.02c1.92,0.48,2.83,0.91,2.14,3.42
			c-2.66,9.71-4.85,19.55-7.43,29.29c-0.64,2.4-0.08,3.27,2.23,3.79c5.1,1.14,10.18,2.38,15.2,3.8c2.37,0.67,3.17,0.01,3.71-2.32
			c2.23-9.57,4.71-19.08,7-28.63c0.52-2.18,1.14-3.17,3.7-2.29c3.39,1.18,6.94,1.96,10.47,2.69c2.5,0.52,3.44,1.26,2.63,4.18
			c-2.6,9.47-4.75,19.07-7.21,28.58c-0.5,1.95-0.49,2.76,1.84,3.22c5.24,1.04,10.44,2.36,15.56,3.88c2.39,0.71,3.19,0.27,3.77-2.18
			c2.28-9.68,4.89-19.29,7.15-28.98c0.55-2.35,1.23-3.05,3.68-2.52c6.83,1.48,13.79,2.22,20.76,2.49
			c9.79,0.39,19.46-0.39,28.45-4.74c13.72-6.63,20.22-18.63,23.74-32.66c4.85-19.35-0.61-32.51-17.5-42.91
			c-0.89-0.55-2.15-0.69-2.6-2.05c0.34-0.15,0.62-0.34,0.93-0.41c26.22-5.99,32.84-43.47,16.25-59.67
			c-8.81-8.6-19.37-13.82-30.64-17.96c-2.31-0.85-2.7-1.75-2.1-4.02c2.52-9.63,4.78-19.32,7.28-28.95c0.52-2,0.4-2.81-1.84-3.27
			c-5.11-1.06-10.19-2.3-15.19-3.78c-2.58-0.76-3.57-0.46-4.21,2.41c-2.03,9.1-4.54,18.1-6.61,27.19c-0.63,2.77-1.73,3.27-4.27,2.5
			c-3.33-1.01-6.72-1.95-10.15-2.45c-2.87-0.41-3.31-1.5-2.6-4.13c2.44-9.13,4.58-18.34,7.02-27.47c0.61-2.3,0.27-3.32-2.15-3.85
			c-5.1-1.12-10.17-2.39-15.21-3.77c-2.22-0.6-3.19-0.26-3.76,2.23c-2.18,9.45-4.71,18.82-6.94,28.26
			c-0.58,2.46-1.09,3.49-4.09,2.68c-11.89-3.2-23.9-5.98-35.82-9.07c-2.59-0.67-3.71-0.24-4.28,2.53c-1.14,5.6-2.5,11.17-4.07,16.67
			c-0.64,2.24-0.04,2.7,2.02,3.15c4.86,1.06,9.71,2.23,14.44,3.75c6.28,2.03,9.13,7.21,7.57,13.46
			c-7.54,30.29-15.12,60.58-22.73,90.85c-1.55,6.16-4.85,8.12-11.08,6.7c-4-0.92-7.98-1.93-11.93-3.05
			c-1.54-0.43-2.46-0.45-3.18,1.27C186.76,447.16,183.56,454.43,180.32,461.92z"/>
        <path class="st0" d="M290.27,460.02c-14.31-0.22-26.08-3.44-37.9-6.41c-1.83-0.46-1.9-1.26-1.5-2.85
			c3.54-13.97,7.03-27.95,10.46-41.94c0.37-1.49,0.71-2.08,2.46-1.67c11.96,2.86,24.02,5.35,35.13,10.92
			c3.91,1.96,7.58,4.28,10.68,7.41c11.01,11.14,6.58,28.49-8.4,32.96C296.97,459.72,292.66,460.14,290.27,460.02z"/>
        <path class="st0" d="M298.07,391.01c-9.93,0.16-19.41-2.4-28.92-4.88c-1.55-0.41-1.98-0.94-1.58-2.52
			c3.22-12.63,6.38-25.27,9.49-37.93c0.33-1.34,0.81-2.02,2.24-1.68c11.47,2.73,23.15,4.88,33.18,11.63
			c7.99,5.38,11.07,12.53,9.11,20.7c-2.09,8.72-8.19,13.74-17.93,14.66C301.81,391.16,299.93,391.01,298.07,391.01z"/>
	</g>
</g>
</svg>
